<svg xmlns="http://www.w3.org/2000/svg" version="1.1" xmlns:xlink="http://www.w3.org/1999/xlink" xmlns:svgjs="http://svgjs.com/svgjs" width="100%" height="100%" viewBox="0 0 1000 600"><rect width="1000" height="600" x="0" y="0" fill="#282c34"/><g><rect width="333.3333333333333" height="333.3333333333333" y="77.77777014838344" fill="#282c34" transform="matrix(2.2499999313354513,0,0,2.2499999313354517,0,-249.99999084472722)" x="55.55555725097656"/><path d="M207.4612099773033 319.444444056738L207.4612099773033 319.444444056738Q200.15099421058343 319.444444056738 196.72081604312257 315.8174523878655Q193.29063787566173 312.16234450450554 193.29063787566173 303.8680612307272L193.29063787566173 303.8680612307272Q193.29063787566173 296.1642184611841 195.0900756028543 280.98146263799663Q196.9176295445343 265.7987068148093 200.65708607135633 241.1126704948861Q204.42465881266583 216.39851796047552 210.49776114194077 180.38164720213655L210.49776114194077 180.38164720213655L234.79017045904058 185.02082259255494Q233.356243520184 194.9458463066015 231.24752743363018 207.90742118528553Q229.110695132589 220.8689960639696 226.88951418808568 234.73028980624989Q224.6683332435823 248.59158354853028 222.72831444395283 261.35634492580255Q220.8164118588107 274.0929900885876 219.6074146358532 283.62438679981074Q218.3703011984083 293.1276672965465 218.3703011984083 297.1764021827298L218.3703011984083 297.1764021827298Q218.3703011984083 302.8558775091815 219.49494977790366 306.9889610388269Q220.619598357399 311.1501607829597 223.03759280331406 314.18671194759725L223.03759280331406 314.18671194759725Q215.33375003377083 319.444444056738 207.4612099773033 319.444444056738ZM256.04602861150295 195.56440302532397L256.04602861150295 195.56440302532397Q247.33000212041384 195.56440302532397 238.6139756293248 194.24294094441692Q229.92606535272313 192.92147886350986 221.12569021817194 191.6000167826028Q212.29719886913335 190.30667091618315 202.99073187380924 190.30667091618315L202.99073187380924 190.30667091618315L170.40403928293114 195.14265980801318Q169.39185556138528 193.11829236492153 168.8857637006124 190.70029791900654Q168.3796718398395 188.2823034730915 168.3796718398395 185.245752308454L168.3796718398395 185.245752308454Q168.3796718398395 175.71435559723085 173.83421745039198 172.5934557891312Q179.31687927543186 169.44443976654418 188.62334627075597 169.44443976654418L188.62334627075597 169.44443976654418Q197.33937276184503 169.44443976654418 206.0272830384467 170.76590184745123Q214.74330952953576 172.0873639283583 223.54368466408695 173.38070979477794Q232.34405979863817 174.702171875685 241.65052679396229 174.89898537709672L241.65052679396229 174.89898537709672L274.2653355993278 169.83806676936757Q275.2775193208736 171.66562071104755 275.671146323697 174.30854487286166Q276.06477332652037 176.92335282018837 276.06477332652037 179.76309048341415L276.06477332652037 179.76309048341415Q276.06477332652037 187.27011975154565 270.80704121737955 191.40320328119114Q265.54930910823873 195.56440302532397 256.04602861150295 195.56440302532397Z " fill="#0055aa" transform="matrix(2.2499999313354513,0,0,2.2499999313354517,0,-249.99999084472722)"/><path d="MNaN 244.44444105360233 " fill="black" transform="matrix(2.2499999313354513,0,0,2.2499999313354517,0,-249.99999084472722)"/></g></svg>